<svg id="Слой_1" data-name="Слой 1" xmlns="http://www.w3.org/2000/svg" viewBox="0 0 702.42 209.55"><defs><style>.cls-1{fill:#fff;}</style></defs><g id="Слой_2" data-name="Слой 2"><g id="Layer_1" data-name="Layer 1"><path class="cls-1" d="M210,184.63a29,29,0,0,1-29.31-28.69v-.62h-26c0,30.7,24.33,54.22,55.23,54.22s55.23-23.52,55.23-54.22H239.25a29,29,0,0,1-28.69,29.31H210M264.18,66.4V46.05H228.29A56.69,56.69,0,0,0,210,42.87c-30.9,0-55.23,23.53-55.23,54.22S179.1,151.33,210,151.33s55.23-23.53,55.23-54.24c0-10.36-2.8-20.53-8.38-28.1ZM210,126.61c-16.35,0-29.31-13-29.31-29.71a29.41,29.41,0,1,1,58.82.19,29.07,29.07,0,0,1-28.61,29.52H210M0,148.34H25.52V2.8H0ZM90.72,42.87c-30.91,0-55.23,23.53-55.23,54.22s24.32,54.24,55.23,54.24,55.22-23.53,55.22-54.24S121.62,42.87,90.72,42.87m0,83.74c-16.35,0-29.32-13-29.32-29.71a29.42,29.42,0,1,1,29.32,29.71m184.63,21.73h25.52V46.05H275.35Zm263-80.75c10.77,0,19.55,5.58,26.32,13.36L582.39,63.4c-10-12.56-25.72-20.53-43.66-20.53-30.9,0-55.23,23.53-55.23,54.22s24.33,54.24,55.23,54.24a55.39,55.39,0,0,0,43.66-20.53l-17.75-17.55c-6.58,7.58-15.55,13.36-26.51,13.36-16.36,0-28.92-12.76-28.92-29.52s12.56-29.5,29.11-29.5M697,34.1c0-2-1.39-2.8-3.39-2.8h-3.18v9.17h1.19V36.89h2l2.2,3.58h1.39l-2.39-3.78A2.32,2.32,0,0,0,697,34.25a.76.76,0,0,0,0-.15m-5.38,1.59V32.5h2c1.6,0,2.2.6,2.2,1.6s-.6,1.59-2.2,1.59Zm-43.27,7.18c-12.56,0-23.32,4.78-30.9,13V2.8H592V148.34h25.53V92.71c0-14.75,9.37-24.92,24.92-24.92,14.56,0,22.53,9,22.53,24.92v55.63h25.53V88.13c0-28.31-17.76-45.26-42.08-45.26m-225.9,0c-30.69,0-54,23.53-54,54.83,0,30.9,21.34,53.63,54.43,53.63,18.35,0,34.7-6.78,46.66-19.54l-17.15-16.94c-8.37,8-17.34,13.75-28.91,13.75-14,0-24.52-8-28.11-21.33H475v-6.18c0-34.9-21.53-58.22-52.44-58.22M394.77,86.53C398.16,73,408.53,65.4,421.89,65.4s23.32,7.37,26.52,21.13ZM693.64,27.12a8.87,8.87,0,1,0,8.78,9v-.19a8.89,8.89,0,0,0-8.78-8.77m0,16.55a7.68,7.68,0,1,1,0-15.36h0a7.68,7.68,0,1,1,0,15.36M287.91,0a16.64,16.64,0,0,0-16.75,16.53V17a16.59,16.59,0,0,0,16.48,16.7h.27c9.76,0,17.15-7.38,17.15-16.75A16.74,16.74,0,0,0,288.54,0h-.63m63.2,14.56H325.58V46.05H311.83V68.78h13.75v79.56h25.53V68.78h14V46.05h-14Z" transform="translate(0 0.01)"/></g></g></svg>